<?xml version="1.0" encoding="utf-8"?>
<!-- Generator: Adobe Illustrator 22.0.0, SVG Export Plug-In . SVG Version: 6.00 Build 0)  -->
<svg version="1.1" xmlns="http://www.w3.org/2000/svg" xmlns:xlink="http://www.w3.org/1999/xlink" x="0px" y="0px"
	 viewBox="0 0 1280 834" style="enable-background:new 0 0 1280 834;" xml:space="preserve">
<style type="text/css">
	.st0{fill:#F9F9F9;}
	.st1{opacity:0.4;}
	.st2{fill:#FFFFFF;}
	.st3{fill:#3F3D56;}
	.st4{fill:#A2CCCB;}
	.st5{fill:#E6E6E6;}
	.st6{fill:#6C63FF;}
	.st7{fill:#423936;}
	.st8{fill:#FFE1E1;}
	.st9{fill:#2E2E33;}
	.st10{fill:#2F2E41;}
	.st11{fill:#4A4A60;}
	.st12{fill:#FFB8B8;}
	.st13{fill:#D0CDE1;}
</style>
<g id="FONDO">
	<rect class="st0" width="1280" height="942"/>
</g>
<g id="Layer_3">
	<g class="st1">
		<circle class="st2" cx="-157.4" cy="59.3" r="3.6"/>
		<circle class="st2" cx="-142.5" cy="59.3" r="3.6"/>
		<circle class="st2" cx="-127.5" cy="59.3" r="3.6"/>
		<circle class="st2" cx="-112.5" cy="59.3" r="3.6"/>
		<circle class="st2" cx="-97.6" cy="59.3" r="3.6"/>
		<circle class="st2" cx="-82.6" cy="59.3" r="3.6"/>
		<circle class="st2" cx="-67.6" cy="59.3" r="3.6"/>
		<circle class="st2" cx="-157.4" cy="70.7" r="3.6"/>
		<circle class="st2" cx="-142.5" cy="70.7" r="3.6"/>
		<circle class="st2" cx="-127.5" cy="70.7" r="3.6"/>
		<circle class="st2" cx="-112.5" cy="70.7" r="3.6"/>
		<circle class="st2" cx="-97.6" cy="70.7" r="3.6"/>
		<circle class="st2" cx="-82.6" cy="70.7" r="3.6"/>
		<circle class="st2" cx="-67.6" cy="70.7" r="3.6"/>
		<circle class="st2" cx="-157.4" cy="82.1" r="3.6"/>
		<circle class="st2" cx="-142.5" cy="82.1" r="3.6"/>
		<circle class="st2" cx="-127.5" cy="82.1" r="3.6"/>
		<circle class="st2" cx="-112.5" cy="82.1" r="3.6"/>
		<circle class="st2" cx="-97.6" cy="82.1" r="3.6"/>
		<circle class="st2" cx="-82.6" cy="82.1" r="3.6"/>
		<circle class="st2" cx="-67.6" cy="82.1" r="3.6"/>
		<circle class="st2" cx="-157.4" cy="93.4" r="3.6"/>
		<circle class="st2" cx="-142.5" cy="93.4" r="3.6"/>
		<circle class="st2" cx="-157.4" cy="104.8" r="3.6"/>
		<circle class="st2" cx="-142.5" cy="104.8" r="3.6"/>
		<circle class="st2" cx="-127.5" cy="104.8" r="3.6"/>
		<circle class="st2" cx="-127.5" cy="93.4" r="3.6"/>
		<circle class="st2" cx="-112.5" cy="93.4" r="3.6"/>
		<circle class="st2" cx="-97.6" cy="93.4" r="3.6"/>
		<circle class="st2" cx="-82.6" cy="93.4" r="3.6"/>
		<circle class="st2" cx="-67.6" cy="93.4" r="3.6"/>
	</g>
	<path class="st3" d="M-208.9,242c-10.9,0-19.8-8.9-19.8-19.8s8.9-19.8,19.8-19.8c10.9,0,19.8,8.9,19.8,19.8
		C-189.1,233.2-198,242-208.9,242z M-208.9,203.5c-10.3,0-18.7,8.4-18.7,18.7s8.4,18.7,18.7,18.7c10.3,0,18.7-8.4,18.7-18.7
		C-190.3,211.9-198.6,203.5-208.9,203.5z"/>
	<path class="st2" d="M-201.3,220.3h-5.7v-5.7c0-1-0.9-1.9-1.9-1.9c-1,0-1.9,0.8-1.9,1.9v5.7h-5.7c-1,0-1.9,0.9-1.9,1.9
		c0,1,0.9,1.9,1.9,1.9h5.7v5.7c0,1,0.9,1.9,1.9,1.9c1,0,1.9-0.8,1.9-1.9v-5.7h5.7c1,0,1.9-0.9,1.9-1.9
		C-199.4,221.2-200.3,220.3-201.3,220.3L-201.3,220.3L-201.3,220.3z"/>
	<g class="st1">
		<circle class="st2" cx="-549.6" cy="241.6" r="2.8"/>
		<circle class="st2" cx="-549.6" cy="229.9" r="2.8"/>
		<circle class="st2" cx="-549.6" cy="218.1" r="2.8"/>
		<circle class="st2" cx="-549.6" cy="206.3" r="2.8"/>
		<circle class="st2" cx="-549.6" cy="194.6" r="2.8"/>
		<circle class="st2" cx="-549.6" cy="182.8" r="2.8"/>
		<circle class="st2" cx="-549.6" cy="171.1" r="2.8"/>
		<circle class="st2" cx="-540.7" cy="241.6" r="2.8"/>
		<circle class="st2" cx="-540.7" cy="229.9" r="2.8"/>
		<circle class="st2" cx="-540.7" cy="218.1" r="2.8"/>
		<circle class="st2" cx="-540.7" cy="206.3" r="2.8"/>
		<circle class="st2" cx="-540.7" cy="194.6" r="2.8"/>
		<circle class="st2" cx="-540.7" cy="182.8" r="2.8"/>
		<circle class="st2" cx="-540.7" cy="171.1" r="2.8"/>
		<circle class="st2" cx="-531.8" cy="241.6" r="2.8"/>
		<circle class="st2" cx="-531.8" cy="229.9" r="2.8"/>
		<circle class="st2" cx="-531.8" cy="218.1" r="2.8"/>
		<circle class="st2" cx="-531.8" cy="206.3" r="2.8"/>
		<circle class="st2" cx="-531.8" cy="194.6" r="2.8"/>
		<circle class="st2" cx="-531.8" cy="182.8" r="2.8"/>
		<circle class="st2" cx="-531.8" cy="171.1" r="2.8"/>
		<circle class="st2" cx="-522.8" cy="241.6" r="2.8"/>
		<circle class="st2" cx="-522.8" cy="229.9" r="2.8"/>
		<circle class="st2" cx="-513.9" cy="241.6" r="2.8"/>
		<circle class="st2" cx="-513.9" cy="229.9" r="2.8"/>
		<circle class="st2" cx="-513.9" cy="218.1" r="2.8"/>
		<circle class="st2" cx="-522.8" cy="218.1" r="2.8"/>
		<circle class="st2" cx="-522.8" cy="206.3" r="2.8"/>
		<circle class="st2" cx="-522.8" cy="194.6" r="2.8"/>
		<circle class="st2" cx="-522.8" cy="182.8" r="2.8"/>
		<circle class="st2" cx="-522.8" cy="171.1" r="2.8"/>
	</g>
	<path class="st3" d="M-300.4,49.5H-488c-1.9,0-3.5,1.6-3.5,3.5v160.4c0,1.9,1.6,3.5,3.5,3.5h187.6c1.9,0,3.5-1.6,3.5-3.5V53
		C-296.9,51.1-298.5,49.6-300.4,49.5z M-298.3,213.4c0,1.2-0.9,2.1-2.1,2.1H-488c-1.2,0-2.1-0.9-2.1-2.1V53c0-1.2,0.9-2.1,2.1-2.1
		h187.6c1.2,0,2.1,0.9,2.1,2.1V213.4z"/>
	<path class="st2" d="M-444.7,188.4c0,0.2,0,0.5,0,0.7c-0.4,7.8-7.1,13.8-14.9,13.4c-7.2-0.4-13-6.2-13.4-13.4c0-0.2,0-0.5,0-0.7
		c0-7.8,6.3-14.2,14.2-14.2S-444.7,180.6-444.7,188.4z"/>
	<path class="st3" d="M-315,178.9h-111.2c-1.3,0-2.4,1.1-2.4,2.4c0,1.3,1.1,2.4,2.4,2.4H-315c1.3,0,2.4-1.1,2.4-2.4
		C-312.6,180-313.7,179-315,178.9z"/>
	<path class="st2" d="M-378.3,193.1h-47.8c-1.3,0-2.4,1.1-2.4,2.4c0,1.3,1.1,2.3,2.4,2.4h47.8c1.3,0,2.4-1.1,2.4-2.4
		C-376,194.2-377,193.1-378.3,193.1C-378.3,193.1-378.3,193.1-378.3,193.1z"/>
	<path class="st2" d="M-255.9,162.3h-187.6c-2.7,0-4.8-2.2-4.8-4.8V75.2c0-2.7,2.2-4.8,4.8-4.8h187.6c2.7,0,4.8,2.2,4.8,4.8v82.3
		C-251.1,160.1-253.2,162.3-255.9,162.3z M-443.4,72c-1.7,0-3.1,1.4-3.1,3.1v82.3c0,1.7,1.4,3.1,3.1,3.1h187.6
		c1.7,0,3.1-1.4,3.1-3.1V75.2c0-1.7-1.4-3.1-3.1-3.1H-443.4z"/>
	<path class="st2" d="M-405.2,100.4c-1.3,0-2.4,1.1-2.4,2.4c0,1.3,1.1,2.4,2.4,2.4c0,0,0,0,0,0h111.2c1.3,0,2.4-1.1,2.4-2.4
		c0-1.3-1.1-2.4-2.4-2.4c0,0,0,0,0,0H-405.2z"/>
	<path class="st2" d="M-405.2,114c-1.3,0-2.4,1.1-2.4,2.4c0,1.3,1.1,2.4,2.4,2.4h111.2c1.3,0,2.4-1.1,2.4-2.4c0-1.3-1.1-2.4-2.4-2.4
		H-405.2z"/>
	<path class="st2" d="M-405.2,127.5c-1.3,0-2.4,1.1-2.4,2.4c0,1.3,1.1,2.4,2.4,2.4h47.8c1.3,0,2.4-1.1,2.4-2.4
		c0-1.3-1.1-2.4-2.4-2.4L-405.2,127.5z"/>
	<path class="st2" d="M-224.9,197.2l-18.8-26.6l6.1,1.3c0.5,0.1,0.9-0.2,1-0.7c0.1-0.5-0.2-0.9-0.7-1l0,0l-9.1-1.9l-1.2,9.2
		c-0.1,0.5,0.3,0.9,0.7,0.9c0.5,0.1,0.9-0.3,0.9-0.7l0,0l0.8-6.2l18.8,26.6c0.3,0.4,0.8,0.5,1.2,0.2S-224.7,197.5-224.9,197.2
		L-224.9,197.2z"/>
	<path class="st3" d="M-327.3,274.6h-133.9c-1.4,0-2.5-1.1-2.5-2.5v-33.2c0-1.4,1.1-2.5,2.5-2.5h133.9c1.4,0,2.5,1.1,2.5,2.5v33.2
		C-324.8,273.4-325.9,274.6-327.3,274.6z M-461.2,237.4c-0.8,0-1.5,0.7-1.5,1.5v33.2c0,0.8,0.7,1.5,1.5,1.5h133.9
		c0.8,0,1.5-0.7,1.5-1.5v-33.2c0-0.8-0.7-1.5-1.5-1.5L-461.2,237.4z"/>
	<circle class="st2" cx="-440.4" cy="254.2" r="10.1"/>
	<path class="st2" d="M-417,247.5c-0.9,0-1.7,0.7-1.7,1.7c0,0.9,0.7,1.7,1.7,1.7c0,0,0,0,0,0h79.4c0.9,0,1.7-0.8,1.7-1.7
		s-0.8-1.7-1.7-1.7c0,0,0,0,0,0H-417z"/>
	<path class="st2" d="M-417,257.6c-0.9,0-1.7,0.7-1.7,1.7c0,0.9,0.7,1.7,1.7,1.7c0,0,0,0,0,0h34.2c0.9,0,1.7-0.8,1.7-1.7
		s-0.8-1.7-1.7-1.7c0,0,0,0,0,0H-417z"/>
	<path class="st3" d="M-480.6,326.2h59.5c1.4,0,2.5,1.1,2.5,2.5v62c0,1.4-1.1,2.5-2.5,2.5h-59.5c-1.4,0-2.5-1.1-2.5-2.5v-62
		C-483,327.3-481.9,326.2-480.6,326.2z M-421,392.2c0.8,0,1.5-0.7,1.5-1.5v-62c0-0.8-0.7-1.5-1.5-1.5h-59.5c-0.8,0-1.5,0.7-1.5,1.5
		v62c0,0.8,0.7,1.5,1.5,1.5L-421,392.2z"/>
	<path class="st2" d="M-433.7,370.4c0.9,0,1.7-0.8,1.7-1.7c0-0.9-0.8-1.7-1.7-1.7c0,0,0,0,0,0h-34.2c-0.9,0-1.7,0.8-1.7,1.7
		c0,0.9,0.8,1.7,1.7,1.7c0,0,0,0,0,0H-433.7z"/>
	<path class="st2" d="M-450.8,339c5.9,0,10.6,4.7,10.6,10.6c0,5.9-4.7,10.6-10.6,10.6c-5.9,0-10.6-4.7-10.6-10.6
		C-461.4,343.7-456.7,339-450.8,339z"/>
</g>
<g id="Layer_4">
	<rect x="-231" y="492" style="fill:none;" width="175" height="152"/>
	<text transform="matrix(1 0 0 1 -231 535.1992)" style="font-family:'DMSans-Medium'; font-size:60px;">&lt;/&gt;</text>
</g>
<g id="Layer_5">
</g>
<g id="Layer_1">
	<g>
		<path class="st4" d="M868.9,425.1l-73.6,9.1c-51.3,6.3-98.5-30.4-104.8-81.7l-6.6-53.2c-4.2-34.1,20.2-65.5,54.4-69.7l60.2-7.5
			c50.5-6.2,96.9,30,103.2,80.4l8.6,69.5C913.4,398.1,894.8,421.9,868.9,425.1z"/>
		<path id="f4300551-56ef-4356-8f30-d0080b223343" class="st3" d="M808.1,372c-1.3,0-2.4,1.1-2.4,2.4c0,1.3,1.1,2.3,2.4,2.4h60
			c1.3,0,2.4-1,2.4-2.4c0-1.3-1-2.4-2.4-2.4l0,0c0,0-0.1,0-0.1,0H808.1z"/>
		<path class="st2" d="M881.7,371.4c-0.2,0.2-0.2,0.5,0,0.7c0,0,0,0,0,0l2,2h-5c-0.3,0-0.5,0.2-0.5,0.5c0,0.3,0.2,0.5,0.5,0.5h5
			l-2,2c-0.2,0.2-0.2,0.5,0,0.7c0.2,0.2,0.5,0.2,0.7,0c0,0,0,0,0,0l2.8-2.8c0.2-0.2,0.2-0.5,0-0.7l-2.8-2.8
			C882.2,371.2,881.9,371.2,881.7,371.4L881.7,371.4z"/>
		<path class="st2" d="M794.4,371.4c0.2,0.2,0.2,0.5,0,0.7c0,0,0,0,0,0l-2,2h5c0.3,0,0.5,0.2,0.5,0.5c0,0.3-0.2,0.5-0.5,0.5
			c0,0,0,0,0,0h-5l2,2c0.2,0.2,0.2,0.5,0,0.7c-0.2,0.2-0.5,0.2-0.7,0l0,0l-2.8-2.8c-0.2-0.2-0.2-0.5,0-0.7l2.8-2.8
			C793.9,371.2,794.2,371.2,794.4,371.4C794.4,371.4,794.4,371.4,794.4,371.4z"/>
		<path class="st2" d="M1018.1,266.8c0.7,0,1.2-0.5,1.2-1.2s-0.5-1.2-1.2-1.2h-24.5c-0.7,0-1.2,0.5-1.2,1.2s0.5,1.2,1.2,1.2H1018.1z
			"/>
		<path class="st3" d="M840.6,258.6H724.5c-1.2,0-2.2,1-2.2,2.2v99.3c0,1.2,1,2.2,2.2,2.2h116.2c1.2,0,2.2-1,2.2-2.2v-99.3
			C842.8,259.5,841.8,258.6,840.6,258.6z M841.9,360.1c0,0.7-0.6,1.3-1.3,1.3H724.5c-0.7,0-1.3-0.6-1.3-1.3v-99.3
			c0-0.7,0.6-1.3,1.3-1.3h116.2c0.7,0,1.3,0.6,1.3,1.3V360.1z"/>
		<path class="st2" d="M751.3,344.6c0,0.2,0,0.3,0,0.5c-0.3,4.8-4.4,8.5-9.2,8.3c-4.5-0.2-8.1-3.8-8.3-8.3c0-0.1,0-0.3,0-0.5
			c0-4.8,3.9-8.8,8.8-8.8S751.3,339.7,751.3,344.6z"/>
		<path class="st3" d="M831.6,338.7h-68.9c-0.8,0-1.5,0.7-1.5,1.5c0,0.8,0.7,1.5,1.5,1.5h68.9c0.8,0,1.5-0.7,1.5-1.5
			C833,339.4,832.4,338.7,831.6,338.7z"/>
		<path class="st2" d="M792.4,347.5h-29.6c-0.8,0-1.5,0.7-1.5,1.5c0,0.8,0.7,1.5,1.5,1.5h29.6c0.8,0,1.5-0.7,1.5-1.5
			S793.2,347.5,792.4,347.5C792.4,347.5,792.4,347.5,792.4,347.5z"/>
		<path class="st2" d="M868.2,328.4H752.1c-1.6,0-3-1.3-3-3v-51c0-1.6,1.3-3,3-3h116.2c1.6,0,3,1.3,3,3v51
			C871.2,327.1,869.9,328.4,868.2,328.4z M752.1,272.5c-1.1,0-1.9,0.9-1.9,1.9v51c0,1.1,0.9,1.9,1.9,1.9h116.2
			c1.1,0,1.9-0.9,1.9-1.9v-51c0-1.1-0.9-1.9-1.9-1.9H752.1z"/>
		<path class="st2" d="M775.7,290.1c-0.8,0-1.5,0.7-1.5,1.5c0,0.8,0.7,1.5,1.5,1.5c0,0,0,0,0,0h68.8c0.8,0,1.5-0.7,1.5-1.5
			c0-0.8-0.7-1.5-1.5-1.5c0,0,0,0,0,0H775.7z"/>
		<path class="st2" d="M775.7,298.5c-0.8,0-1.5,0.7-1.5,1.5s0.7,1.5,1.5,1.5h68.8c0.8,0,1.5-0.7,1.5-1.5s-0.7-1.5-1.5-1.5H775.7z"/>
		<path class="st2" d="M775.7,306.9c-0.8,0-1.5,0.7-1.5,1.5c0,0.8,0.7,1.5,1.5,1.5h29.6c0.8,0,1.5-0.7,1.5-1.5s-0.7-1.5-1.5-1.5
			H775.7z"/>
		<g>
			<path class="st3" d="M824,406.5h-82.9c-0.8,0-1.5-0.7-1.5-1.5v-20.6c0-0.8,0.7-1.5,1.5-1.5H824c0.8,0,1.5,0.7,1.5,1.5V405
				C825.5,405.8,824.8,406.5,824,406.5z M741.1,383.5c-0.5,0-0.9,0.4-0.9,0.9V405c0,0.5,0.4,0.9,0.9,0.9H824c0.5,0,0.9-0.4,0.9-0.9
				v-20.6c0-0.5-0.4-0.9-0.9-0.9L741.1,383.5z"/>
			<circle class="st2" cx="754" cy="393.9" r="6.3"/>
			<path class="st2" d="M768.4,389.7c-0.6,0-1,0.5-1,1c0,0.6,0.5,1,1,1c0,0,0,0,0,0h49.2c0.6,0,1-0.5,1-1c0-0.6-0.5-1-1-1
				c0,0,0,0,0,0H768.4z"/>
			<path class="st2" d="M768.4,396c-0.6,0-1,0.5-1,1c0,0.6,0.5,1,1,1c0,0,0,0,0,0h21.2c0.6,0,1-0.5,1-1c0-0.6-0.5-1-1-1c0,0,0,0,0,0
				H768.4z"/>
		</g>
		<g>
			
				<rect x="1087.6" y="412" transform="matrix(0.2739 -0.9618 0.9618 0.2739 312.6046 1406.7601)" class="st5" width="0.8" height="168.7"/>
			
				<rect x="1095.9" y="383" transform="matrix(0.2739 -0.9618 0.9618 0.2739 346.5203 1393.637)" class="st5" width="0.8" height="168.7"/>
			
				<rect x="1104.1" y="354" transform="matrix(0.2739 -0.9618 0.9618 0.2739 380.436 1380.5137)" class="st5" width="0.8" height="168.7"/>
			
				<rect x="1084.6" y="480.8" transform="matrix(0.2739 -0.9618 0.9618 0.2739 368.5269 1450.511)" class="st5" width="120.7" height="0.8"/>
			
				<rect x="1052.1" y="471.6" transform="matrix(0.2739 -0.9618 0.9618 0.2739 353.8558 1412.595)" class="st5" width="120.7" height="0.8"/>
			
				<rect x="1019.7" y="462.3" transform="matrix(0.2739 -0.9618 0.9618 0.2739 339.1848 1374.6788)" class="st5" width="120.7" height="0.8"/>
			
				<rect x="987.2" y="453.1" transform="matrix(0.2739 -0.9618 0.9618 0.2739 324.5136 1336.7628)" class="st5" width="120.7" height="0.8"/>
			
				<rect x="1069.1" y="414.3" transform="matrix(0.2739 -0.9618 0.9618 0.2739 356.1594 1368.1608)" class="st4" width="30.2" height="67.7"/>
			<path class="st6" d="M1080.9,460.5"/>
			<polygon class="st4" points="1048.1,451.2 1039.2,482.5 1081.7,462 			"/>
			<path class="st4" d="M1112.9,470.9l-0.3,1.1l-0.5,0.3l-1.1,0.5c-16.8-4.2-33.6,3.9-38.4,18.5l-1,0.5l0,0l8.9-31.3L1112.9,470.9z"
				/>
			<path class="st5" d="M1112.3,472.3c-0.1,0-0.2,0-0.2-0.1c-17.7-4.9-35.8,3.7-40.5,19.4c0,0.1-0.1,0.2-0.1,0.4
				c-4.6,16,6.3,33.2,24.3,38.3c18,5.1,36.3-3.7,40.8-19.8S1130.3,477.4,1112.3,472.3z M1096,529.6c-17.5-5-28.2-21.7-23.8-37.3
				c0.1-0.4,0.2-0.7,0.3-1c4.8-14.6,21.7-22.7,38.4-18.5c0.4,0.1,0.7,0.2,1.1,0.3c17.5,5,28.2,21.7,23.8,37.3
				C1131.4,526,1113.6,534.6,1096,529.6z"/>
			<path class="st5" d="M1086.3,495.9l-1.9-0.5c0-0.2,5-16.5,24.4-12.2l-0.4,1.9C1090.9,481.2,1086.5,495.3,1086.3,495.9z"/>
			<path class="st5" d="M1123.1,505.9c1.1-4.3,0.3-8.9-2-12.7c-2.7-4.4-7-7.7-12.1-9l0,0c-10.2-2.9-20.6,2-23.5,11
				c0,0.1-0.1,0.2-0.1,0.4c-1.4,4.7-0.4,9.7,2.3,13.7c2.8,4.1,6.9,7.1,11.7,8.4l0,0c10.3,2.9,20.9-2.2,23.5-11.4
				C1123,506.2,1123,506.1,1123.1,505.9z"/>
			<path class="st4" d="M1121.1,493.2l-0.7,0.3l-31.9,15.4l-0.7,0.3c-2.7-4.1-3.7-9-2.3-13.7c0-0.1,0.1-0.2,0.1-0.4
				c2.8-9,13.2-14,23.5-11l0,0C1114,485.6,1118.3,488.8,1121.1,493.2z"/>
		</g>
		<path class="st4" d="M1118.8,372l-23.4,6.8c-26.3,7.6-54.1-7.7-61.8-34l0,0c-5.1-17.5,5.1-36,22.6-41.1l16.5-4.8
			c25.9-7.5,53.3,7.5,60.8,33.5l2.4,8.4C1139.8,354.1,1132.1,368.1,1118.8,372z"/>
		<g>
			<g>
				<path class="st0" d="M1069.1,352.1l-12.4-6.6l7-12.3l5.6-1.6l-7,12.3l12.5,6.6L1069.1,352.1z"/>
				<path class="st0" d="M1081.6,359.2l-0.1-39.2l4.3-1.2l0.1,39.2L1081.6,359.2z"/>
				<path class="st0" d="M1097.5,343.9l7-12.3L1092,325l5.6-1.6l12.4,6.6l-7,12.3L1097.5,343.9z"/>
			</g>
		</g>
		<circle class="st7" cx="985.5" cy="395.3" r="18.7"/>
		<path class="st7" d="M990.8,377.1c10.3,0,18.7,8.4,18.7,18.7c0,3.1-0.8,6.2-2.2,8.9c6.5-8.1,5.1-19.9-2.9-26.3
			c-8.1-6.5-19.9-5.1-26.3,2.9c-0.7,0.9-1.3,1.8-1.9,2.8C979.7,379.7,985.1,377.1,990.8,377.1z"/>
		<circle class="st7" cx="950.5" cy="340.2" r="55"/>
		<path class="st7" d="M907.3,306.1c19.7-22.2,53.4-24.7,76.3-5.8c-0.5-0.4-0.9-0.9-1.4-1.3c-22.7-20.2-57.5-18.1-77.7,4.6
			c-20.2,22.7-18.1,57.5,4.6,77.7c0.5,0.4,0.9,0.8,1.4,1.2C889,362.1,887.6,328.3,907.3,306.1z"/>
		<circle class="st8" cx="950.1" cy="359.4" r="35.4"/>
		<path class="st8" d="M924.9,370.6c0,0,4.7,42.9-2.8,47.6s42.9,11.2,42.9,11.2s-7.5-46.6,11.2-58.8L924.9,370.6z"/>
		<path class="st9" d="M969.7,410.7c0,0,13.9-6.5-6.1-4.2s-37.3-6.6-37.3-6.6s-6.1-6.1-7,0.5c-0.9,6.5,2.8,18.7-17.7,20.5
			c-20.5,1.9-39.2-3.7-46.6,10.3c-7.5,14-3.7,74.6-3.7,74.6s14,50.4,25.2,57.8c11.2,7.5,109.1-2.8,109.1-2.8l28-50.4v-58.8
			c0,0-3.7-20.5-29.8-14.9c0,0-16.8-3.7-15.9-12.1C968.7,416.3,969.7,410.7,969.7,410.7z"/>
		<path class="st10" d="M880.1,599.3c0.6-2.5,1-3.9,1-3.9l-0.3-2l-3.1-20.9l-1.3-8.8c11.2-4.7,14-26.1,14-26.1l0.4-0.3l1.9-1.1v0
			l6.9-4.1l0.1-0.1l2.8,1.8l5.6,3.8c19.7,14.5,39.7,14.2,52.1,11.9c7.6-1.4,12.3-3.5,12.3-3.5l13.6-4.5l0.4-0.1l0.4,0.1l8,1.2l0.1,0
			l0.7,0.1l-1.8,12.7l-2.7,18.5c7.1,3.7,13.3,10.8,18.8,19.4c1.2,1.9,2.4,3.9,3.5,6c1.5,2.7,2.9,5.5,4.2,8.3c0.2,0.3,0.3,0.7,0.5,1
			c0.5,1.1,1,2.2,1.5,3.4H877.6c0.2-1.1,0.4-2.2,0.6-3.3c0,0,0-0.1,0-0.1c0.1-0.4,0.1-0.7,0.2-1C879,604.2,879.6,601.4,880.1,599.3z
			"/>
		<path class="st11" d="M874.5,420c0,0,10.3,18.7,6.5,42c-3.7,23.3,11.2,81.1,11.2,81.1l11.2-2.8c0,0-7.5-48.5-5.6-59.7
			c1.9-11.2,1.9-55-7.5-60.6C881,414.4,874.5,420,874.5,420z"/>
		<path class="st11" d="M983,439.4l3.9,103.3l7.5,4.7c0,0,10.7-113.3,5.1-113.3h-11.4c-2.8,0-5.1,2.3-5.1,5.1
			C983,439.2,983,439.3,983,439.4z"/>
		<circle class="st6" cx="897.4" cy="536.1" r="4.7"/>
		<circle class="st6" cx="990.6" cy="540.8" r="4.7"/>
		<polygon class="st7" points="919.7,315.1 919.7,350.5 928,350.5 938.4,339.3 937,350.5 973.3,350.5 971.1,339.3 975.5,350.5 
			981.3,350.5 981.3,315.1 		"/>
		<ellipse class="st8" cx="914.2" cy="351.9" rx="2.8" ry="5.1"/>
		<ellipse class="st8" cx="986" cy="351.9" rx="2.8" ry="5.1"/>
		<path class="st12" d="M1005.1,540.3c0,0-42.4-7.9-45.2,6.1s47.1,7.9,47.1,7.9L1005.1,540.3z"/>
		<path class="st9" d="M1004.2,444.2c0,0,101.7,81.1,83,100.7c-18.7,19.6-89.5,14-89.5,14l4.7-23.3l41-4.7l-20.5-20.5l-18.7,1.9
			V444.2z"/>
		<path class="st12" d="M854,579.5l13.1,10.3c0,0,9.3,28.9,23.3,20.5c14-8.4-13.1-38.2-13.1-38.2l-15.9-5.6L854,579.5z"/>
		<path class="st9" d="M867,429.3l-13,3.9c0,0-90.5,67-94.2,85.6c-3.7,18.7,17.7,28.9,17.7,28.9l81.1,38.2l8.4-22.4L828.8,544
			c0,0,2.8-5.6-8.4-6.5c-11.2-0.9-13.1-13.1-13.1-13.1s22.4-34.5,34.5-27c12.1,7.5,15.9,13.1,15.9,13.1L867,429.3z"/>
		<path class="st3" d="M1052.8,602.5v3.1c0,0.9-0.2,1.7-0.5,2.5c-0.1,0.4-0.3,0.7-0.5,1c-1.2,2.1-3.5,3.4-5.9,3.4H816
			c-2.4,0-4.7-1.3-5.9-3.4c-0.2-0.3-0.4-0.7-0.5-1c-0.3-0.8-0.5-1.6-0.5-2.5v-3.1c0-3.8,3.1-6.9,6.9-6.9c0,0,0,0,0,0h13.2v-1.5
			c0-0.2,0.1-0.3,0.3-0.3c0,0,0,0,0,0h6.9c0.2,0,0.3,0.1,0.3,0.3c0,0,0,0,0,0v1.5h4.3v-1.5c0-0.2,0.1-0.3,0.3-0.3c0,0,0,0,0,0h6.9
			c0.2,0,0.3,0.1,0.3,0.3c0,0,0,0,0,0v1.5h4.3v-1.5c0-0.2,0.1-0.3,0.3-0.3c0,0,0,0,0,0h6.9c0.2,0,0.3,0.1,0.3,0.3c0,0,0,0,0,0v1.5
			h4.3v-1.5c0-0.2,0.1-0.3,0.3-0.3c0,0,0,0,0,0h6.9c0.2,0,0.3,0.1,0.3,0.3c0,0,0,0,0,0v1.5h4.3v-1.5c0-0.2,0.1-0.3,0.3-0.3
			c0,0,0,0,0,0h6.9c0.2,0,0.3,0.1,0.3,0.3c0,0,0,0,0,0v1.5h4.3v-1.5c0-0.2,0.1-0.3,0.3-0.3c0,0,0,0,0,0h6.9c0.2,0,0.3,0.1,0.3,0.3
			c0,0,0,0,0,0v1.5h4.3v-1.5c0-0.2,0.1-0.3,0.3-0.3c0,0,0,0,0,0h54.2c0.2,0,0.3,0.1,0.3,0.3c0,0,0,0,0,0v1.5h4.3v-1.5
			c0-0.2,0.1-0.3,0.3-0.3c0,0,0,0,0,0h6.9c0.2,0,0.3,0.1,0.3,0.3v1.5h4.3v-1.5c0-0.2,0.1-0.3,0.3-0.3c0,0,0,0,0,0h6.9
			c0.2,0,0.3,0.1,0.3,0.3c0,0,0,0,0,0v1.5h4.3v-1.5c0-0.2,0.1-0.3,0.3-0.3c0,0,0,0,0,0h6.9c0.2,0,0.3,0.1,0.3,0.3c0,0,0,0,0,0v1.5
			h4.3v-1.5c0-0.2,0.1-0.3,0.3-0.3c0,0,0,0,0,0h6.9c0.2,0,0.3,0.1,0.3,0.3v1.5h4.3v-1.5c0-0.2,0.1-0.3,0.3-0.3c0,0,0,0,0,0h6.9
			c0.2,0,0.3,0.1,0.3,0.3c0,0,0,0,0,0v1.5h4.3v-1.5c0-0.2,0.1-0.3,0.3-0.3c0,0,0,0,0,0h6.9c0.2,0,0.3,0.1,0.3,0.3c0,0,0,0,0,0v1.5
			h20.2C1049.7,595.6,1052.8,598.7,1052.8,602.5C1052.8,602.5,1052.8,602.5,1052.8,602.5z"/>
		<rect x="742.3" y="608.1" class="st3" width="377.3" height="1"/>
		<path class="st3" d="M1032.3,469.1h-85.7v-1.8h-38.8v1.8h-86c-3.2,0-5.8,2.6-5.8,5.8v117.3c0,3.2,2.6,5.8,5.8,5.8h210.6
			c3.2,0,5.8-2.6,5.8-5.8V474.9C1038.1,471.7,1035.5,469.1,1032.3,469.1L1032.3,469.1z"/>
		<circle class="st13" cx="927" cy="540.5" r="12.9"/>
	</g>
</g>
</svg>
