<?xml version="1.0" encoding="utf-8"?>
<!-- Generator: Adobe Illustrator 22.0.0, SVG Export Plug-In . SVG Version: 6.00 Build 0)  -->
<svg version="1.1" id="Layer_1" xmlns="http://www.w3.org/2000/svg" xmlns:xlink="http://www.w3.org/1999/xlink" x="0px" y="0px"
	 viewBox="0 0 1280 470" style="enable-background:new 0 0 1280 470;" xml:space="preserve">
<style type="text/css">
	.st0{fill:#F9F9F9;}
	.st1{fill:#A2CCCB;}
	.st2{fill:#3F3D56;}
	.st3{fill:#FFFFFF;}
	.st4{fill:#E6E6E6;}
	.st5{fill:#6C63FF;}
	.st6{fill:#423936;}
	.st7{fill:#FFE1E1;}
	.st8{fill:#2E2E33;}
	.st9{fill:#2F2E41;}
	.st10{fill:#4A4A60;}
	.st11{fill:#FFB8B8;}
	.st12{fill:#D0CDE1;}
</style>
<rect x="-16" y="-28" class="st0" width="1333" height="942"/>
<g>
	<path class="st1" d="M891.6,237.1l-43.5,5.4c-51.3,6.3-98.5-30.4-104.8-81.7l-2.9-23.8c-4.2-34.1,20.2-65.5,54.4-69.7l30.1-3.7
		c50.5-6.2,96.9,30,103.2,80.4l5,40.2C936.1,210,917.5,233.9,891.6,237.1z"/>
	<path id="f4300551-56ef-4356-8f30-d0080b223343" class="st2" d="M846,190.6c-1.1,0-2,1-2,2.1c0,1.1,0.9,2,2,2h51.6
		c1.1,0,2.1-0.9,2.1-2c0-1.1-0.9-2.1-2-2.1l0,0c0,0,0,0-0.1,0H846z"/>
	<path class="st3" d="M909.3,190.1c-0.2,0.2-0.2,0.4,0,0.6c0,0,0,0,0,0l1.7,1.7h-4.3c-0.2,0-0.4,0.2-0.4,0.4c0,0.2,0.2,0.4,0.4,0.4
		h4.3l-1.7,1.7c-0.2,0.2-0.2,0.4,0,0.6c0.2,0.2,0.4,0.2,0.6,0c0,0,0,0,0,0l2.4-2.4c0.2-0.2,0.2-0.4,0-0.6l-2.4-2.4
		C909.7,189.9,909.4,189.9,909.3,190.1L909.3,190.1z"/>
	<path class="st3" d="M834.3,190.1c0.2,0.2,0.2,0.4,0,0.6c0,0,0,0,0,0l-1.7,1.7h4.3c0.2,0,0.4,0.2,0.4,0.4c0,0.2-0.2,0.4-0.4,0.4
		c0,0,0,0,0,0h-4.3l1.7,1.7c0.2,0.2,0.2,0.4,0,0.6c-0.2,0.2-0.4,0.2-0.6,0l0,0l-2.4-2.4c-0.2-0.2-0.2-0.4,0-0.6l2.4-2.4
		C833.8,189.9,834.1,189.9,834.3,190.1C834.3,190.1,834.3,190.1,834.3,190.1z"/>
	<path class="st2" d="M873.9,93.1h-99.8c-1,0-1.8,0.8-1.8,1.8v85.3c0,1,0.8,1.8,1.8,1.8h99.8c1,0,1.8-0.8,1.8-1.8V95
		C875.8,94,875,93.1,873.9,93.1z M875,180.3c0,0.6-0.5,1.1-1.1,1.1h-99.8c-0.6,0-1.1-0.5-1.1-1.1V95c0-0.6,0.5-1.1,1.1-1.1h99.8
		c0.6,0,1.1,0.5,1.1,1.1V180.3z"/>
	<path class="st3" d="M797.2,167c0,0.1,0,0.3,0,0.4c-0.2,4.2-3.8,7.3-7.9,7.1c-3.8-0.2-6.9-3.3-7.1-7.1c0-0.1,0-0.3,0-0.4
		c0-4.2,3.4-7.5,7.5-7.5C793.8,159.5,797.2,162.8,797.2,167z"/>
	<path class="st2" d="M866.2,162H807c-0.7,0-1.3,0.6-1.3,1.3c0,0.7,0.6,1.3,1.3,1.3h59.2c0.7,0,1.3-0.6,1.3-1.3
		C867.4,162.5,866.9,162,866.2,162z"/>
	<path class="st3" d="M832.5,169.5H807c-0.7,0-1.3,0.6-1.3,1.3c0,0.7,0.6,1.3,1.3,1.3h25.5c0.7,0,1.3-0.6,1.3-1.3
		S833.2,169.5,832.5,169.5C832.5,169.5,832.5,169.5,832.5,169.5z"/>
	<path class="st3" d="M897.6,153.1h-99.8c-1.4,0-2.6-1.1-2.6-2.6v-43.8c0-1.4,1.1-2.6,2.6-2.6h99.8c1.4,0,2.6,1.1,2.6,2.6v43.8
		C900.2,152,899.1,153.1,897.6,153.1z M797.8,105.1c-0.9,0-1.7,0.7-1.7,1.7v43.8c0,0.9,0.7,1.7,1.7,1.7h99.8c0.9,0,1.7-0.7,1.7-1.7
		v-43.8c0-0.9-0.7-1.7-1.7-1.7H797.8z"/>
	<path class="st3" d="M818.2,120.2c-0.7,0-1.3,0.6-1.3,1.3c0,0.7,0.6,1.3,1.3,1.3c0,0,0,0,0,0h59.2c0.7,0,1.3-0.6,1.3-1.3
		c0-0.7-0.6-1.3-1.3-1.3c0,0,0,0,0,0H818.2z"/>
	<path class="st3" d="M818.2,127.5c-0.7,0-1.3,0.6-1.3,1.3c0,0.7,0.6,1.3,1.3,1.3h59.2c0.7,0,1.3-0.6,1.3-1.3c0-0.7-0.6-1.3-1.3-1.3
		H818.2z"/>
	<path class="st3" d="M818.2,134.6c-0.7,0-1.3,0.6-1.3,1.3c0,0.7,0.6,1.3,1.3,1.3h25.5c0.7,0,1.3-0.6,1.3-1.3s-0.6-1.3-1.3-1.3
		L818.2,134.6z"/>
	<g>
		<path class="st2" d="M859.7,220.2h-71.3c-0.7,0-1.3-0.6-1.3-1.3v-17.7c0-0.7,0.6-1.3,1.3-1.3h71.3c0.7,0,1.3,0.6,1.3,1.3v17.7
			C861,219.7,860.4,220.2,859.7,220.2z M788.4,200.5c-0.4,0-0.8,0.4-0.8,0.8v17.7c0,0.4,0.4,0.8,0.8,0.8h71.3c0.4,0,0.8-0.4,0.8-0.8
			v-17.7c0-0.4-0.4-0.8-0.8-0.8L788.4,200.5z"/>
		<circle class="st3" cx="799.5" cy="209.4" r="5.4"/>
		<path class="st3" d="M811.9,205.8c-0.5,0-0.9,0.4-0.9,0.9c0,0.5,0.4,0.9,0.9,0.9c0,0,0,0,0,0h42.2c0.5,0,0.9-0.4,0.9-0.9
			s-0.4-0.9-0.9-0.9c0,0,0,0,0,0H811.9z"/>
		<path class="st3" d="M811.9,211.2c-0.5,0-0.9,0.4-0.9,0.9c0,0.5,0.4,0.9,0.9,0.9c0,0,0,0,0,0h18.2c0.5,0,0.9-0.4,0.9-0.9
			s-0.4-0.9-0.9-0.9c0,0,0,0,0,0H811.9z"/>
	</g>
	<g>
		
			<rect x="1086.1" y="225" transform="matrix(0.2739 -0.9618 0.9618 0.2739 502.8167 1260.8661)" class="st4" width="0.7" height="144.9"/>
		
			<rect x="1093.2" y="200" transform="matrix(0.2739 -0.9618 0.9618 0.2739 531.9566 1249.5908)" class="st4" width="0.7" height="144.9"/>
		
			<rect x="1100.3" y="175.1" transform="matrix(0.2739 -0.9618 0.9618 0.2739 561.0964 1238.3156)" class="st4" width="0.7" height="144.9"/>
		
			<rect x="1083.5" y="284.1" transform="matrix(0.2739 -0.9618 0.9618 0.2739 550.8643 1298.4561)" class="st4" width="103.7" height="0.7"/>
		
			<rect x="1055.7" y="276.1" transform="matrix(0.2739 -0.9618 0.9618 0.2739 538.2592 1265.8793)" class="st4" width="103.7" height="0.7"/>
		
			<rect x="1027.8" y="268.2" transform="matrix(0.2739 -0.9618 0.9618 0.2739 525.654 1233.3024)" class="st4" width="103.7" height="0.7"/>
		
			<rect x="999.9" y="260.2" transform="matrix(0.2739 -0.9618 0.9618 0.2739 513.0488 1200.7255)" class="st4" width="103.7" height="0.7"/>
		
			<rect x="1070.3" y="227" transform="matrix(0.2739 -0.9618 0.9618 0.2739 540.2384 1227.702)" class="st1" width="25.9" height="58.2"/>
		<path class="st5" d="M1080.3,266.7"/>
		<polygon class="st1" points="1052.2,258.6 1044.6,285.5 1081.1,267.9 		"/>
		<path class="st1" d="M1107.9,275.5l-0.3,1l-0.5,0.2l-0.9,0.4c-14.4-3.6-28.9,3.3-33,15.9l-0.8,0.4l0,0l7.6-26.9L1107.9,275.5z"/>
		<path class="st4" d="M1107.4,276.8c-0.1,0-0.1,0-0.2-0.1c-15.2-4.2-30.7,3.2-34.8,16.7c0,0.1-0.1,0.2-0.1,0.3
			c-3.9,13.8,5.4,28.5,20.9,32.9c15.4,4.4,31.2-3.2,35.1-17C1132.2,295.9,1122.8,281.2,1107.4,276.8z M1093.4,326
			c-15.1-4.3-24.2-18.7-20.4-32.1c0.1-0.3,0.2-0.6,0.3-0.9c4.1-12.6,18.6-19.5,33-15.9c0.3,0.1,0.6,0.2,0.9,0.3
			c15.1,4.3,24.2,18.7,20.4,32.1S1108.4,330.3,1093.4,326z"/>
		<path class="st4" d="M1085,297l-1.6-0.5c0-0.1,4.3-14.1,20.9-10.5l-0.4,1.6C1088.9,284.4,1085.2,296.5,1085,297z"/>
		<path class="st4" d="M1116.6,305.7c0.9-3.7,0.3-7.7-1.7-10.9c-2.4-3.8-6.1-6.6-10.4-7.8l0,0c-8.8-2.5-17.7,1.7-20.2,9.5
			c0,0.1-0.1,0.2-0.1,0.3c-1.2,4.1-0.3,8.3,2,11.8c2.4,3.5,5.9,6.1,10,7.2l0,0c8.9,2.5,18-1.9,20.2-9.8
			C1116.6,305.9,1116.6,305.8,1116.6,305.7z"/>
		<path class="st1" d="M1114.9,294.8l-0.6,0.3l-27.4,13.2l-0.6,0.3c-2.3-3.5-3.2-7.7-2-11.8c0-0.1,0.1-0.2,0.1-0.3
			c2.4-7.7,11.4-12,20.2-9.5l0,0C1108.8,288.2,1112.5,291,1114.9,294.8z"/>
	</g>
	<path class="st1" d="M1115.5,189.8l-27.8,8c-19.8,5.8-40.8-5.8-46.5-25.6l-2.5-8.5c-3.8-13.2,3.8-27.1,17-30.9l22.6-6.5
		c19.5-5.7,40.1,5.7,45.8,25.2l4.3,14.8C1131.3,176.3,1125.5,186.9,1115.5,189.8z"/>
	<g>
		<g>
			<path class="st0" d="M1070.2,173.5l-10.7-5.7l6-10.5l4.8-1.4l-6,10.5l10.7,5.7L1070.2,173.5z"/>
			<path class="st0" d="M1080.9,179.6l-0.1-33.7l3.7-1.1l0.1,33.7L1080.9,179.6z"/>
			<path class="st0" d="M1094.6,166.4l6-10.5l-10.7-5.7l4.8-1.4l10.7,5.7l-6,10.5L1094.6,166.4z"/>
		</g>
	</g>
	<circle class="st6" cx="998.4" cy="210.6" r="16.1"/>
	<path class="st6" d="M1002.9,195c8.9,0,16.1,7.2,16.1,16.1c0,2.7-0.7,5.3-1.9,7.6c5.5-6.9,4.4-17.1-2.5-22.6
		c-6.9-5.5-17.1-4.4-22.6,2.5c-0.6,0.8-1.1,1.6-1.6,2.4C993.4,197.2,998,195,1002.9,195z"/>
	<circle class="st6" cx="968.4" cy="163.3" r="47.3"/>
	<path class="st6" d="M931.3,134c16.9-19,45.9-21.2,65.5-5c-0.4-0.4-0.8-0.7-1.2-1.1c-19.5-17.3-49.4-15.6-66.8,4
		c-17.3,19.5-15.6,49.4,3.9,66.7c0.4,0.4,0.8,0.7,1.2,1C915.5,182.1,914.3,153,931.3,134z"/>
	<circle class="st7" cx="968" cy="179.7" r="30.5"/>
	<path class="st7" d="M946.3,189.3c0,0,4,36.9-2.4,40.9c-6.4,4,36.9,9.6,36.9,9.6s-6.4-40.1,9.6-50.5L946.3,189.3z"/>
	<path class="st8" d="M984.8,223.8c0,0,11.9-5.6-5.3-3.6c-17.2,2-32-5.6-32-5.6s-5.2-5.2-6,0.4c-0.8,5.6,2.4,16-15.2,17.6
		s-33.7-3.2-40.1,8.8c-6.4,12-3.2,64.1-3.2,64.1s12,43.3,21.6,49.7s93.8-2.4,93.8-2.4l24-43.3v-50.5c0,0-3.2-17.6-25.6-12.8
		c0,0-14.4-3.2-13.6-10.4C984,228.6,984.8,223.8,984.8,223.8z"/>
	<path class="st9" d="M907.8,385.9c0.5-2.2,0.8-3.4,0.8-3.4l-0.3-1.8l-2.6-17.9l-1.1-7.6c9.6-4,12-22.4,12-22.4l0.4-0.2l1.6-1v0
		l5.9-3.5l0.1-0.1l2.4,1.6l4.8,3.2c16.9,12.4,34.1,12.2,44.8,10.3c6.5-1.2,10.5-3,10.5-3l11.7-3.9l0.4-0.1l0.4,0.1l6.8,1l0.1,0
		l0.6,0.1l-1.6,10.9l-2.3,15.9c6.1,3.2,11.5,9.2,16.2,16.7c1,1.6,2.1,3.4,3,5.1c1.3,2.3,2.5,4.7,3.6,7.1c0.1,0.3,0.3,0.6,0.4,0.9
		c0.4,1,0.9,1.9,1.3,2.9H905.7c0.2-1,0.3-1.9,0.5-2.8c0,0,0-0.1,0-0.1c0.1-0.3,0.1-0.6,0.2-0.9C906.9,390.1,907.4,387.7,907.8,385.9
		z"/>
	<path class="st10" d="M903.1,231.8c0,0,8.8,16,5.6,36.1s9.6,69.7,9.6,69.7l9.6-2.4c0,0-6.4-41.7-4.8-51.3
		c1.6-9.6,1.6-47.3-6.4-52.1C908.7,227,903.1,231.8,903.1,231.8z"/>
	<path class="st10" d="M996.3,248.5l3.4,88.7l6.4,4c0,0,9.2-97.4,4.4-97.4h-9.8c-2.4,0-4.4,2-4.4,4.4
		C996.2,248.3,996.3,248.4,996.3,248.5z"/>
	<circle class="st5" cx="922.7" cy="331.6" r="4"/>
	<circle class="st5" cx="1002.8" cy="335.6" r="4"/>
	<polygon class="st6" points="941.9,141.7 941.9,172.1 949,172.1 958,162.5 956.7,172.1 987.9,172.1 986,162.5 989.8,172.1 
		994.8,172.1 994.8,141.7 	"/>
	<ellipse class="st7" cx="937.1" cy="173.3" rx="2.4" ry="4.4"/>
	<ellipse class="st7" cx="998.8" cy="173.3" rx="2.4" ry="4.4"/>
	<path class="st11" d="M1015.3,335.2c0,0-36.5-6.8-38.9,5.2c-2.4,12,40.5,6.8,40.5,6.8L1015.3,335.2z"/>
	<path class="st8" d="M1014.4,252.7c0,0,87.4,69.7,71.3,86.6c-16,16.8-76.9,12-76.9,12l4-20l35.3-4l-17.6-17.6l-16,1.6L1014.4,252.7
		z"/>
	<path class="st11" d="M885.4,368.9l11.2,8.8c0,0,8,24.8,20,17.6c12-7.2-11.2-32.9-11.2-32.9l-13.6-4.8L885.4,368.9z"/>
	<path class="st8" d="M896.6,239.8l-11.2,3.4c0,0-77.8,57.5-81,73.6c-3.2,16,15.2,24.8,15.2,24.8l69.7,32.9l7.2-19.2l-32.9-16.8
		c0,0,2.4-4.8-7.2-5.6c-9.6-0.8-11.2-11.2-11.2-11.2s19.2-29.7,29.7-23.2c10.4,6.4,13.6,11.2,13.6,11.2L896.6,239.8z"/>
	<path class="st2" d="M1056.2,388.6v2.7c0,0.7-0.1,1.5-0.4,2.2c-0.1,0.3-0.3,0.6-0.4,0.9c-1.1,1.8-3,2.9-5.1,2.9H852.8
		c-2.1,0-4-1.1-5.1-2.9c-0.2-0.3-0.3-0.6-0.4-0.9c-0.3-0.7-0.4-1.4-0.4-2.2v-2.7c0-3.3,2.7-5.9,5.9-5.9c0,0,0,0,0,0h11.4v-1.3
		c0-0.1,0.1-0.2,0.2-0.2c0,0,0,0,0,0h5.9c0.1,0,0.2,0.1,0.2,0.2c0,0,0,0,0,0v1.3h3.7v-1.3c0-0.1,0.1-0.2,0.2-0.2c0,0,0,0,0,0h5.9
		c0.1,0,0.2,0.1,0.2,0.2c0,0,0,0,0,0v1.3h3.7v-1.3c0-0.1,0.1-0.2,0.2-0.2c0,0,0,0,0,0h5.9c0.1,0,0.2,0.1,0.2,0.2c0,0,0,0,0,0v1.3
		h3.7v-1.3c0-0.1,0.1-0.2,0.2-0.2c0,0,0,0,0,0h5.9c0.1,0,0.2,0.1,0.2,0.2c0,0,0,0,0,0v1.3h3.7v-1.3c0-0.1,0.1-0.2,0.2-0.2
		c0,0,0,0,0,0h5.9c0.1,0,0.2,0.1,0.2,0.2c0,0,0,0,0,0v1.3h3.7v-1.3c0-0.1,0.1-0.2,0.2-0.2c0,0,0,0,0,0h5.9c0.1,0,0.2,0.1,0.2,0.2
		c0,0,0,0,0,0v1.3h3.7v-1.3c0-0.1,0.1-0.2,0.2-0.2c0,0,0,0,0,0h46.5c0.1,0,0.2,0.1,0.2,0.2c0,0,0,0,0,0v1.3h3.7v-1.3
		c0-0.1,0.1-0.2,0.2-0.2c0,0,0,0,0,0h5.9c0.1,0,0.2,0.1,0.2,0.2v1.3h3.7v-1.3c0-0.1,0.1-0.2,0.2-0.2c0,0,0,0,0,0h5.9
		c0.1,0,0.2,0.1,0.2,0.2c0,0,0,0,0,0v1.3h3.7v-1.3c0-0.1,0.1-0.2,0.2-0.2c0,0,0,0,0,0h5.9c0.1,0,0.2,0.1,0.2,0.2c0,0,0,0,0,0v1.3
		h3.7v-1.3c0-0.1,0.1-0.2,0.2-0.2c0,0,0,0,0,0h5.9c0.1,0,0.2,0.1,0.2,0.2v1.3h3.7v-1.3c0-0.1,0.1-0.2,0.2-0.2c0,0,0,0,0,0h5.9
		c0.1,0,0.2,0.1,0.2,0.2c0,0,0,0,0,0v1.3h3.7v-1.3c0-0.1,0.1-0.2,0.2-0.2c0,0,0,0,0,0h5.9c0.1,0,0.2,0.1,0.2,0.2c0,0,0,0,0,0v1.3
		h17.3C1053.6,382.7,1056.2,385.3,1056.2,388.6C1056.2,388.6,1056.2,388.6,1056.2,388.6z"/>
	<rect x="789.5" y="393.4" class="st2" width="324.2" height="0.9"/>
	<path class="st2" d="M1038.6,274H965v-1.5h-33.4v1.5h-73.9c-2.8,0-5,2.2-5,5v100.8c0,2.7,2.2,5,5,5h180.9c2.8,0,5-2.2,5-5V279
		C1043.6,276.2,1041.4,274,1038.6,274L1038.6,274z"/>
	<circle class="st12" cx="948.2" cy="335.4" r="11.1"/>
</g>
</svg>
