<?xml version="1.0" encoding="utf-8"?>
<!-- Generator: Adobe Illustrator 22.0.0, SVG Export Plug-In . SVG Version: 6.00 Build 0)  -->
<svg version="1.1" id="Layer_1" xmlns="http://www.w3.org/2000/svg" xmlns:xlink="http://www.w3.org/1999/xlink" x="0px" y="0px"
	 viewBox="0 0 1280 470" style="enable-background:new 0 0 1280 470;" xml:space="preserve">
<style type="text/css">
	.st0{fill:#F9F9F9;}
	.st1{fill:#A2CCCB;}
	.st2{fill:#3F3D56;}
	.st3{fill:#FFFFFF;}
	.st4{fill:#E6E6E6;}
	.st5{fill:#6C63FF;}
	.st6{fill:#423936;}
	.st7{fill:#FFE1E1;}
	.st8{fill:#2E2E33;}
	.st9{fill:#2F2E41;}
	.st10{fill:#4A4A60;}
	.st11{fill:#FFB8B8;}
	.st12{fill:#D0CDE1;}
</style>
<rect x="-16" y="-28" class="st0" width="1333" height="942"/>
<g>
	<path class="st1" d="M853.6,242.1l-43.5,5.4c-51.3,6.3-98.5-30.4-104.8-81.7l-2.9-23.8c-4.2-34.1,20.2-65.5,54.4-69.7l30.1-3.7
		c50.5-6.2,96.9,30,103.2,80.4l5,40.2C898.1,215,879.5,238.9,853.6,242.1z"/>
	<path id="f4300551-56ef-4356-8f30-d0080b223343" class="st2" d="M808,195.6c-1.1,0-2,1-2,2.1c0,1.1,0.9,2,2,2h51.6
		c1.1,0,2.1-0.9,2.1-2c0-1.1-0.9-2.1-2-2.1l0,0c0,0,0,0-0.1,0H808z"/>
	<path class="st3" d="M871.3,195.1c-0.2,0.2-0.2,0.4,0,0.6c0,0,0,0,0,0l1.7,1.7h-4.3c-0.2,0-0.4,0.2-0.4,0.4c0,0.2,0.2,0.4,0.4,0.4
		h4.3l-1.7,1.7c-0.2,0.2-0.2,0.4,0,0.6c0.2,0.2,0.4,0.2,0.6,0c0,0,0,0,0,0l2.4-2.4c0.2-0.2,0.2-0.4,0-0.6l-2.4-2.4
		C871.7,194.9,871.4,194.9,871.3,195.1L871.3,195.1z"/>
	<path class="st3" d="M796.3,195.1c0.2,0.2,0.2,0.4,0,0.6c0,0,0,0,0,0l-1.7,1.7h4.3c0.2,0,0.4,0.2,0.4,0.4c0,0.2-0.2,0.4-0.4,0.4
		c0,0,0,0,0,0h-4.3l1.7,1.7c0.2,0.2,0.2,0.4,0,0.6c-0.2,0.2-0.4,0.2-0.6,0l0,0l-2.4-2.4c-0.2-0.2-0.2-0.4,0-0.6l2.4-2.4
		C795.8,194.9,796.1,194.9,796.3,195.1C796.3,195.1,796.3,195.1,796.3,195.1z"/>
	<path class="st2" d="M835.9,98.1h-99.8c-1,0-1.8,0.8-1.8,1.8v85.3c0,1,0.8,1.8,1.8,1.8h99.8c1,0,1.8-0.8,1.8-1.8V100
		C837.8,99,837,98.1,835.9,98.1z M837,185.3c0,0.6-0.5,1.1-1.1,1.1h-99.8c-0.6,0-1.1-0.5-1.1-1.1V100c0-0.6,0.5-1.1,1.1-1.1h99.8
		c0.6,0,1.1,0.5,1.1,1.1V185.3z"/>
	<path class="st3" d="M759.2,172c0,0.1,0,0.3,0,0.4c-0.2,4.2-3.8,7.3-7.9,7.1c-3.8-0.2-6.9-3.3-7.1-7.1c0-0.1,0-0.3,0-0.4
		c0-4.2,3.4-7.5,7.5-7.5C755.8,164.5,759.2,167.8,759.2,172z"/>
	<path class="st2" d="M828.2,167H769c-0.7,0-1.3,0.6-1.3,1.3c0,0.7,0.6,1.3,1.3,1.3h59.2c0.7,0,1.3-0.6,1.3-1.3
		C829.4,167.5,828.9,167,828.2,167z"/>
	<path class="st3" d="M794.5,174.5H769c-0.7,0-1.3,0.6-1.3,1.3c0,0.7,0.6,1.3,1.3,1.3h25.5c0.7,0,1.3-0.6,1.3-1.3
		S795.2,174.5,794.5,174.5C794.5,174.5,794.5,174.5,794.5,174.5z"/>
	<path class="st3" d="M859.6,158.1h-99.8c-1.4,0-2.6-1.1-2.6-2.6v-43.8c0-1.4,1.1-2.6,2.6-2.6h99.8c1.4,0,2.6,1.1,2.6,2.6v43.8
		C862.2,157,861.1,158.1,859.6,158.1z M759.8,110.1c-0.9,0-1.7,0.7-1.7,1.7v43.8c0,0.9,0.7,1.7,1.7,1.7h99.8c0.9,0,1.7-0.7,1.7-1.7
		v-43.8c0-0.9-0.7-1.7-1.7-1.7H759.8z"/>
	<path class="st3" d="M780.2,125.2c-0.7,0-1.3,0.6-1.3,1.3c0,0.7,0.6,1.3,1.3,1.3c0,0,0,0,0,0h59.2c0.7,0,1.3-0.6,1.3-1.3
		c0-0.7-0.6-1.3-1.3-1.3c0,0,0,0,0,0H780.2z"/>
	<path class="st3" d="M780.2,132.5c-0.7,0-1.3,0.6-1.3,1.3c0,0.7,0.6,1.3,1.3,1.3h59.2c0.7,0,1.3-0.6,1.3-1.3c0-0.7-0.6-1.3-1.3-1.3
		H780.2z"/>
	<path class="st3" d="M780.2,139.6c-0.7,0-1.3,0.6-1.3,1.3c0,0.7,0.6,1.3,1.3,1.3h25.5c0.7,0,1.3-0.6,1.3-1.3s-0.6-1.3-1.3-1.3
		L780.2,139.6z"/>
	<g>
		<path class="st2" d="M821.7,225.2h-71.3c-0.7,0-1.3-0.6-1.3-1.3v-17.7c0-0.7,0.6-1.3,1.3-1.3h71.3c0.7,0,1.3,0.6,1.3,1.3v17.7
			C823,224.7,822.4,225.2,821.7,225.2z M750.4,205.5c-0.4,0-0.8,0.4-0.8,0.8v17.7c0,0.4,0.4,0.8,0.8,0.8h71.3c0.4,0,0.8-0.4,0.8-0.8
			v-17.7c0-0.4-0.4-0.8-0.8-0.8L750.4,205.5z"/>
		<circle class="st3" cx="761.5" cy="214.4" r="5.4"/>
		<path class="st3" d="M773.9,210.8c-0.5,0-0.9,0.4-0.9,0.9c0,0.5,0.4,0.9,0.9,0.9c0,0,0,0,0,0h42.2c0.5,0,0.9-0.4,0.9-0.9
			s-0.4-0.9-0.9-0.9c0,0,0,0,0,0H773.9z"/>
		<path class="st3" d="M773.9,216.2c-0.5,0-0.9,0.4-0.9,0.9c0,0.5,0.4,0.9,0.9,0.9c0,0,0,0,0,0h18.2c0.5,0,0.9-0.4,0.9-0.9
			s-0.4-0.9-0.9-0.9c0,0,0,0,0,0H773.9z"/>
	</g>
	<g>
		
			<rect x="1048.1" y="230" transform="matrix(0.2739 -0.9618 0.9618 0.2739 470.4171 1227.9498)" class="st4" width="0.7" height="144.9"/>
		
			<rect x="1055.2" y="205" transform="matrix(0.2739 -0.9618 0.9618 0.2739 499.5569 1216.6746)" class="st4" width="0.7" height="144.9"/>
		
			<rect x="1062.3" y="180.1" transform="matrix(0.2739 -0.9618 0.9618 0.2739 528.6968 1205.3993)" class="st4" width="0.7" height="144.9"/>
		
			<rect x="1045.5" y="289.1" transform="matrix(0.2739 -0.9618 0.9618 0.2739 518.4647 1265.5399)" class="st4" width="103.7" height="0.7"/>
		
			<rect x="1017.7" y="281.1" transform="matrix(0.2739 -0.9618 0.9618 0.2739 505.8595 1232.963)" class="st4" width="103.7" height="0.7"/>
		
			<rect x="989.8" y="273.2" transform="matrix(0.2739 -0.9618 0.9618 0.2739 493.2543 1200.3862)" class="st4" width="103.7" height="0.7"/>
		
			<rect x="961.9" y="265.2" transform="matrix(0.2739 -0.9618 0.9618 0.2739 480.6491 1167.8093)" class="st4" width="103.7" height="0.7"/>
		
			<rect x="1032.3" y="232" transform="matrix(0.2739 -0.9618 0.9618 0.2739 507.8387 1194.7859)" class="st1" width="25.9" height="58.2"/>
		<path class="st5" d="M1042.3,271.7"/>
		<polygon class="st1" points="1014.2,263.6 1006.6,290.5 1043.1,272.9 		"/>
		<path class="st1" d="M1069.9,280.5l-0.3,1l-0.5,0.2l-0.9,0.4c-14.4-3.6-28.9,3.3-33,15.9l-0.8,0.4l0,0l7.6-26.9L1069.9,280.5z"/>
		<path class="st4" d="M1069.4,281.8c-0.1,0-0.1,0-0.2-0.1c-15.2-4.2-30.7,3.2-34.8,16.7c0,0.1-0.1,0.2-0.1,0.3
			c-3.9,13.8,5.4,28.5,20.9,32.9c15.4,4.4,31.2-3.2,35.1-17C1094.2,300.9,1084.8,286.2,1069.4,281.8z M1055.4,331
			c-15.1-4.3-24.2-18.7-20.4-32.1c0.1-0.3,0.2-0.6,0.3-0.9c4.1-12.6,18.6-19.5,33-15.9c0.3,0.1,0.6,0.2,0.9,0.3
			c15.1,4.3,24.2,18.7,20.4,32.1S1070.4,335.3,1055.4,331z"/>
		<path class="st4" d="M1047,302l-1.6-0.5c0-0.1,4.3-14.1,20.9-10.5l-0.4,1.6C1050.9,289.4,1047.2,301.5,1047,302z"/>
		<path class="st4" d="M1078.6,310.7c0.9-3.7,0.3-7.7-1.7-10.9c-2.4-3.8-6.1-6.6-10.4-7.8l0,0c-8.8-2.5-17.7,1.7-20.2,9.5
			c0,0.1-0.1,0.2-0.1,0.3c-1.2,4.1-0.3,8.3,2,11.8c2.4,3.5,5.9,6.1,10,7.2l0,0c8.9,2.5,18-1.9,20.2-9.8
			C1078.6,310.9,1078.6,310.8,1078.6,310.7z"/>
		<path class="st1" d="M1076.9,299.8l-0.6,0.3l-27.4,13.2l-0.6,0.3c-2.3-3.5-3.2-7.7-2-11.8c0-0.1,0.1-0.2,0.1-0.3
			c2.4-7.7,11.4-12,20.2-9.5l0,0C1070.8,293.2,1074.5,296,1076.9,299.8z"/>
	</g>
	<path class="st1" d="M1077.5,194.8l-27.8,8c-19.8,5.8-40.8-5.8-46.5-25.6l-2.5-8.5c-3.8-13.2,3.8-27.1,17-30.9l22.6-6.5
		c19.5-5.7,40.1,5.7,45.8,25.2l4.3,14.8C1093.3,181.3,1087.5,191.9,1077.5,194.8z"/>
	<g>
		<g>
			<path class="st0" d="M1032.2,178.5l-10.7-5.7l6-10.5l4.8-1.4l-6,10.5l10.7,5.7L1032.2,178.5z"/>
			<path class="st0" d="M1042.9,184.6l-0.1-33.7l3.7-1.1l0.1,33.7L1042.9,184.6z"/>
			<path class="st0" d="M1056.6,171.4l6-10.5l-10.7-5.7l4.8-1.4l10.7,5.7l-6,10.5L1056.6,171.4z"/>
		</g>
	</g>
	<circle class="st6" cx="960.4" cy="215.6" r="16.1"/>
	<path class="st6" d="M964.9,200c8.9,0,16.1,7.2,16.1,16.1c0,2.7-0.7,5.3-1.9,7.6c5.5-6.9,4.4-17.1-2.5-22.6
		c-6.9-5.5-17.1-4.4-22.6,2.5c-0.6,0.8-1.1,1.6-1.6,2.4C955.4,202.2,960,200,964.9,200z"/>
	<circle class="st6" cx="930.4" cy="168.3" r="47.3"/>
	<path class="st6" d="M893.3,139c16.9-19,45.9-21.2,65.5-5c-0.4-0.4-0.8-0.7-1.2-1.1c-19.5-17.3-49.4-15.6-66.8,4
		c-17.3,19.5-15.6,49.4,3.9,66.7c0.4,0.4,0.8,0.7,1.2,1C877.5,187.1,876.3,158,893.3,139z"/>
	<circle class="st7" cx="930" cy="184.7" r="30.5"/>
	<path class="st7" d="M908.3,194.3c0,0,4,36.9-2.4,40.9c-6.4,4,36.9,9.6,36.9,9.6s-6.4-40.1,9.6-50.5L908.3,194.3z"/>
	<path class="st8" d="M946.8,228.8c0,0,11.9-5.6-5.3-3.6c-17.2,2-32-5.6-32-5.6s-5.2-5.2-6,0.4c-0.8,5.6,2.4,16-15.2,17.6
		s-33.7-3.2-40.1,8.8c-6.4,12-3.2,64.1-3.2,64.1s12,43.3,21.6,49.7s93.8-2.4,93.8-2.4l24-43.3v-50.5c0,0-3.2-17.6-25.6-12.8
		c0,0-14.4-3.2-13.6-10.4C946,233.6,946.8,228.8,946.8,228.8z"/>
	<path class="st9" d="M869.8,390.9c0.5-2.2,0.8-3.4,0.8-3.4l-0.3-1.8l-2.6-17.9l-1.1-7.6c9.6-4,12-22.4,12-22.4l0.4-0.2l1.6-1v0
		l5.9-3.5l0.1-0.1l2.4,1.6l4.8,3.2c16.9,12.4,34.1,12.2,44.8,10.3c6.5-1.2,10.5-3,10.5-3l11.7-3.9l0.4-0.1l0.4,0.1l6.8,1l0.1,0
		l0.6,0.1l-1.6,10.9l-2.3,15.9c6.1,3.2,11.5,9.2,16.2,16.7c1,1.6,2.1,3.4,3,5.1c1.3,2.3,2.5,4.7,3.6,7.1c0.1,0.3,0.3,0.6,0.4,0.9
		c0.4,1,0.9,1.9,1.3,2.9H867.7c0.2-1,0.3-1.9,0.5-2.8c0,0,0-0.1,0-0.1c0.1-0.3,0.1-0.6,0.2-0.9C868.9,395.1,869.4,392.7,869.8,390.9
		z"/>
	<path class="st10" d="M865.1,236.8c0,0,8.8,16,5.6,36.1s9.6,69.7,9.6,69.7l9.6-2.4c0,0-6.4-41.7-4.8-51.3
		c1.6-9.6,1.6-47.3-6.4-52.1C870.7,232,865.1,236.8,865.1,236.8z"/>
	<path class="st10" d="M958.3,253.5l3.4,88.7l6.4,4c0,0,9.2-97.4,4.4-97.4h-9.8c-2.4,0-4.4,2-4.4,4.4
		C958.2,253.3,958.3,253.4,958.3,253.5z"/>
	<circle class="st5" cx="884.7" cy="336.6" r="4"/>
	<circle class="st5" cx="964.8" cy="340.6" r="4"/>
	<polygon class="st6" points="903.9,146.7 903.9,177.1 911,177.1 920,167.5 918.7,177.1 949.9,177.1 948,167.5 951.8,177.1 
		956.8,177.1 956.8,146.7 	"/>
	<ellipse class="st7" cx="899.1" cy="178.3" rx="2.4" ry="4.4"/>
	<ellipse class="st7" cx="960.8" cy="178.3" rx="2.4" ry="4.4"/>
	<path class="st11" d="M977.3,340.2c0,0-36.5-6.8-38.9,5.2c-2.4,12,40.5,6.8,40.5,6.8L977.3,340.2z"/>
	<path class="st8" d="M976.4,257.7c0,0,87.4,69.7,71.3,86.6c-16,16.8-76.9,12-76.9,12l4-20l35.3-4l-17.6-17.6l-16,1.6L976.4,257.7z"
		/>
	<path class="st11" d="M847.4,373.9l11.2,8.8c0,0,8,24.8,20,17.6c12-7.2-11.2-32.9-11.2-32.9l-13.6-4.8L847.4,373.9z"/>
	<path class="st8" d="M858.6,244.8l-11.2,3.4c0,0-77.8,57.5-81,73.6c-3.2,16,15.2,24.8,15.2,24.8l69.7,32.9l7.2-19.2l-32.9-16.8
		c0,0,2.4-4.8-7.2-5.6c-9.6-0.8-11.2-11.2-11.2-11.2s19.2-29.7,29.7-23.2c10.4,6.4,13.6,11.2,13.6,11.2L858.6,244.8z"/>
	<path class="st2" d="M1018.2,393.6v2.7c0,0.7-0.1,1.5-0.4,2.2c-0.1,0.3-0.3,0.6-0.4,0.9c-1.1,1.8-3,2.9-5.1,2.9H814.8
		c-2.1,0-4-1.1-5.1-2.9c-0.2-0.3-0.3-0.6-0.4-0.9c-0.3-0.7-0.4-1.4-0.4-2.2v-2.7c0-3.3,2.7-5.9,5.9-5.9c0,0,0,0,0,0h11.4v-1.3
		c0-0.1,0.1-0.2,0.2-0.2c0,0,0,0,0,0h5.9c0.1,0,0.2,0.1,0.2,0.2c0,0,0,0,0,0v1.3h3.7v-1.3c0-0.1,0.1-0.2,0.2-0.2c0,0,0,0,0,0h5.9
		c0.1,0,0.2,0.1,0.2,0.2c0,0,0,0,0,0v1.3h3.7v-1.3c0-0.1,0.1-0.2,0.2-0.2c0,0,0,0,0,0h5.9c0.1,0,0.2,0.1,0.2,0.2c0,0,0,0,0,0v1.3
		h3.7v-1.3c0-0.1,0.1-0.2,0.2-0.2c0,0,0,0,0,0h5.9c0.1,0,0.2,0.1,0.2,0.2c0,0,0,0,0,0v1.3h3.7v-1.3c0-0.1,0.1-0.2,0.2-0.2
		c0,0,0,0,0,0h5.9c0.1,0,0.2,0.1,0.2,0.2c0,0,0,0,0,0v1.3h3.7v-1.3c0-0.1,0.1-0.2,0.2-0.2c0,0,0,0,0,0h5.9c0.1,0,0.2,0.1,0.2,0.2
		c0,0,0,0,0,0v1.3h3.7v-1.3c0-0.1,0.1-0.2,0.2-0.2c0,0,0,0,0,0h46.5c0.1,0,0.2,0.1,0.2,0.2c0,0,0,0,0,0v1.3h3.7v-1.3
		c0-0.1,0.1-0.2,0.2-0.2c0,0,0,0,0,0h5.9c0.1,0,0.2,0.1,0.2,0.2v1.3h3.7v-1.3c0-0.1,0.1-0.2,0.2-0.2c0,0,0,0,0,0h5.9
		c0.1,0,0.2,0.1,0.2,0.2c0,0,0,0,0,0v1.3h3.7v-1.3c0-0.1,0.1-0.2,0.2-0.2c0,0,0,0,0,0h5.9c0.1,0,0.2,0.1,0.2,0.2c0,0,0,0,0,0v1.3
		h3.7v-1.3c0-0.1,0.1-0.2,0.2-0.2c0,0,0,0,0,0h5.9c0.1,0,0.2,0.1,0.2,0.2v1.3h3.7v-1.3c0-0.1,0.1-0.2,0.2-0.2c0,0,0,0,0,0h5.9
		c0.1,0,0.2,0.1,0.2,0.2c0,0,0,0,0,0v1.3h3.7v-1.3c0-0.1,0.1-0.2,0.2-0.2c0,0,0,0,0,0h5.9c0.1,0,0.2,0.1,0.2,0.2c0,0,0,0,0,0v1.3
		h17.3C1015.6,387.7,1018.2,390.3,1018.2,393.6C1018.2,393.6,1018.2,393.6,1018.2,393.6z"/>
	<rect x="751.5" y="398.4" class="st2" width="324.2" height="0.9"/>
	<path class="st2" d="M1000.6,279H927v-1.5h-33.4v1.5h-73.9c-2.8,0-5,2.2-5,5v100.8c0,2.7,2.2,5,5,5h180.9c2.7,0,5-2.2,5-5V284
		C1005.6,281.2,1003.4,279,1000.6,279L1000.6,279z"/>
	<circle class="st12" cx="910.2" cy="340.4" r="11.1"/>
</g>
</svg>
